<svg width="24" height="17" viewBox="0 0 24 17" fill="none" xmlns="http://www.w3.org/2000/svg">
<path fill-rule="evenodd" clip-rule="evenodd" d="M4.45249 7.31141L1.64063 14.6232L0.820313 14.6236L0 14.6239V15.7347V16.8455H4.24688H8.49375V15.7347V14.6239H7.86362C7.36774 14.6239 7.23519 14.6187 7.24149 14.5997C7.56945 13.6116 8.44678 11.0309 8.45462 11.0313C8.46068 11.0316 9.25787 12.3747 10.2262 14.016C11.1944 15.6572 11.9927 17 11.9999 17C12.0072 17 12.8054 15.6572 13.7738 14.016C14.7421 12.3747 15.5393 11.0316 15.5454 11.0313C15.5532 11.0309 16.4305 13.6115 16.7585 14.5997C16.7648 14.6187 16.6323 14.6239 16.1364 14.6239H15.5063V15.7347V16.8455H19.7531H24V15.7347V14.6239L23.1797 14.6236L22.3594 14.6233L19.5572 7.31164C18.016 3.29023 16.7489 0 16.7414 0C16.7338 0 15.6668 1.91277 14.3702 4.25058C13.0736 6.58841 12.0057 8.49874 11.9971 8.49575C11.9885 8.49277 10.9274 6.58242 9.63906 4.2505C8.35076 1.9186 7.28942 0.00817159 7.28053 0.00511932C7.27164 0.00206705 5.99903 3.28991 4.45249 7.31141Z" fill="#8E469C"/>
</svg>
